<mxfile host="65bd71144e">
    <diagram id="BbwwEcZASVBuKHlzfULO" name="Page-1">
        <mxGraphModel dx="825" dy="479" grid="1" gridSize="10" guides="1" tooltips="1" connect="1" arrows="1" fold="1" page="1" pageScale="1" pageWidth="827" pageHeight="1169" background="none" math="0" shadow="0">
            <root>
                <mxCell id="0"/>
                <mxCell id="1" parent="0"/>
                <mxCell id="64" value="" style="rounded=0;whiteSpace=wrap;html=1;fillColor=#424242;" vertex="1" parent="1">
                    <mxGeometry x="181.5" y="30" width="498.5" height="570" as="geometry"/>
                </mxCell>
                <mxCell id="48" value="" style="endArrow=none;html=1;rounded=0;strokeColor=#000000;strokeWidth=3;exitX=1.005;exitY=0.625;exitDx=0;exitDy=0;exitPerimeter=0;entryX=-0.009;entryY=0.786;entryDx=0;entryDy=0;entryPerimeter=0;" edge="1" parent="1" source="45" target="41">
                    <mxGeometry width="50" height="50" relative="1" as="geometry">
                        <mxPoint x="474" y="580" as="sourcePoint"/>
                        <mxPoint x="524" y="530" as="targetPoint"/>
                    </mxGeometry>
                </mxCell>
                <mxCell id="18" value="" style="group" vertex="1" connectable="0" parent="1">
                    <mxGeometry x="273" y="160" width="70" height="70" as="geometry"/>
                </mxCell>
                <mxCell id="4" value="" style="rounded=0;whiteSpace=wrap;html=1;" vertex="1" parent="18">
                    <mxGeometry width="50" height="70" as="geometry"/>
                </mxCell>
                <mxCell id="5" value="" style="shape=cylinder3;whiteSpace=wrap;html=1;boundedLbl=1;backgroundOutline=1;size=15;direction=south;" vertex="1" parent="18">
                    <mxGeometry x="10" y="10" width="60" height="30" as="geometry"/>
                </mxCell>
                <mxCell id="6" value="Encoder" style="text;html=1;strokeColor=none;fillColor=none;align=center;verticalAlign=middle;whiteSpace=wrap;rounded=0;" vertex="1" parent="18">
                    <mxGeometry y="50" width="50" height="20" as="geometry"/>
                </mxCell>
                <mxCell id="19" value="" style="group" vertex="1" connectable="0" parent="1">
                    <mxGeometry x="353" y="60" width="70" height="120" as="geometry"/>
                </mxCell>
                <mxCell id="10" value="" style="rounded=0;whiteSpace=wrap;html=1;" vertex="1" parent="19">
                    <mxGeometry width="70" height="120" as="geometry"/>
                </mxCell>
                <mxCell id="11" value="Motor A:&lt;br&gt;Movimento&lt;br&gt;Vertical" style="text;html=1;strokeColor=none;fillColor=none;align=center;verticalAlign=middle;whiteSpace=wrap;rounded=0;" vertex="1" parent="19">
                    <mxGeometry x="5" y="80" width="60" height="40" as="geometry"/>
                </mxCell>
                <mxCell id="20" value="" style="group" vertex="1" connectable="0" parent="1">
                    <mxGeometry x="433" y="140" width="130" height="90" as="geometry"/>
                </mxCell>
                <mxCell id="7" value="" style="rounded=0;whiteSpace=wrap;html=1;" vertex="1" parent="20">
                    <mxGeometry width="130" height="90" as="geometry"/>
                </mxCell>
                <mxCell id="8" value="" style="rounded=0;whiteSpace=wrap;html=1;" vertex="1" parent="20">
                    <mxGeometry x="32.5" y="5" width="65" height="40" as="geometry"/>
                </mxCell>
                <mxCell id="9" value="Ponte H" style="text;html=1;strokeColor=none;fillColor=none;align=center;verticalAlign=middle;whiteSpace=wrap;rounded=0;" vertex="1" parent="20">
                    <mxGeometry x="32.5" y="70" width="65" height="20" as="geometry"/>
                </mxCell>
                <mxCell id="21" value="" style="group" vertex="1" connectable="0" parent="1">
                    <mxGeometry x="573" y="120" width="70" height="60" as="geometry"/>
                </mxCell>
                <mxCell id="12" value="" style="rounded=0;whiteSpace=wrap;html=1;" vertex="1" parent="21">
                    <mxGeometry width="70" height="60" as="geometry"/>
                </mxCell>
                <mxCell id="13" value="Motor B:&lt;br&gt;Rotação&lt;br&gt;Palhetas" style="text;html=1;strokeColor=none;fillColor=none;align=center;verticalAlign=middle;whiteSpace=wrap;rounded=0;" vertex="1" parent="21">
                    <mxGeometry x="5" y="20" width="60" height="40" as="geometry"/>
                </mxCell>
                <mxCell id="23" value="" style="group" vertex="1" connectable="0" parent="1">
                    <mxGeometry x="213" y="150" width="40" height="80" as="geometry"/>
                </mxCell>
                <mxCell id="14" value="" style="rounded=0;whiteSpace=wrap;html=1;direction=south;container=0;" vertex="1" parent="23">
                    <mxGeometry width="40" height="80" as="geometry"/>
                </mxCell>
                <mxCell id="15" value="Reed Switch" style="text;html=1;strokeColor=none;fillColor=none;align=center;verticalAlign=middle;whiteSpace=wrap;rounded=0;direction=south;container=0;" vertex="1" parent="23">
                    <mxGeometry x="10" y="5" width="20" height="70" as="geometry"/>
                </mxCell>
                <mxCell id="25" value="" style="endArrow=none;html=1;rounded=0;strokeColor=#000000;strokeWidth=3;entryX=0.25;entryY=1;entryDx=0;entryDy=0;exitX=1.011;exitY=0.625;exitDx=0;exitDy=0;exitPerimeter=0;" edge="1" parent="1" source="45" target="9">
                    <mxGeometry width="50" height="50" relative="1" as="geometry">
                        <mxPoint x="384" y="510" as="sourcePoint"/>
                        <mxPoint x="503" y="320" as="targetPoint"/>
                        <Array as="points">
                            <mxPoint x="482" y="520"/>
                        </Array>
                    </mxGeometry>
                </mxCell>
                <mxCell id="24" value="" style="endArrow=none;html=1;rounded=0;strokeColor=#FF0000;strokeWidth=3;" edge="1" parent="1">
                    <mxGeometry width="50" height="50" relative="1" as="geometry">
                        <mxPoint x="384" y="540" as="sourcePoint"/>
                        <mxPoint x="463" y="310" as="targetPoint"/>
                        <Array as="points">
                            <mxPoint x="463" y="540"/>
                            <mxPoint x="463" y="310"/>
                            <mxPoint x="463" y="230"/>
                        </Array>
                    </mxGeometry>
                </mxCell>
                <mxCell id="26" value="" style="endArrow=none;html=1;rounded=0;strokeColor=#000000;strokeWidth=1;entryX=0.25;entryY=1;entryDx=0;entryDy=0;exitX=0.101;exitY=1.013;exitDx=0;exitDy=0;exitPerimeter=0;" edge="1" parent="1" source="6" target="9">
                    <mxGeometry width="50" height="50" relative="1" as="geometry">
                        <mxPoint x="313" y="250" as="sourcePoint"/>
                        <mxPoint x="483" y="270" as="targetPoint"/>
                        <Array as="points">
                            <mxPoint x="278" y="250"/>
                            <mxPoint x="482" y="250"/>
                        </Array>
                    </mxGeometry>
                </mxCell>
                <mxCell id="27" value="" style="endArrow=none;html=1;rounded=0;strokeColor=#FF8000;strokeWidth=1;entryX=0.25;entryY=1;entryDx=0;entryDy=0;exitX=0.414;exitY=1.02;exitDx=0;exitDy=0;exitPerimeter=0;" edge="1" parent="1" source="9" target="6">
                    <mxGeometry width="50" height="50" relative="1" as="geometry">
                        <mxPoint x="493" y="250" as="sourcePoint"/>
                        <mxPoint x="323" y="270" as="targetPoint"/>
                        <Array as="points">
                            <mxPoint x="492" y="260"/>
                            <mxPoint x="286" y="260"/>
                        </Array>
                    </mxGeometry>
                </mxCell>
                <mxCell id="28" value="" style="endArrow=none;html=1;rounded=0;strokeColor=#FF8000;strokeWidth=1;entryX=0.25;entryY=1;entryDx=0;entryDy=0;exitX=1;exitY=0.25;exitDx=0;exitDy=0;" edge="1" parent="1" source="14" target="6">
                    <mxGeometry width="50" height="50" relative="1" as="geometry">
                        <mxPoint x="243" y="260" as="sourcePoint"/>
                        <mxPoint x="283" y="260" as="targetPoint"/>
                        <Array as="points">
                            <mxPoint x="243" y="260"/>
                            <mxPoint x="286" y="260"/>
                        </Array>
                    </mxGeometry>
                </mxCell>
                <mxCell id="29" value="" style="endArrow=none;html=1;rounded=0;strokeColor=#FFFFFF;strokeWidth=3;entryX=0;entryY=0.75;entryDx=0;entryDy=0;exitX=0.25;exitY=1;exitDx=0;exitDy=0;" edge="1" parent="1" source="11" target="7">
                    <mxGeometry width="50" height="50" relative="1" as="geometry">
                        <mxPoint x="363" y="230" as="sourcePoint"/>
                        <mxPoint x="413" y="190" as="targetPoint"/>
                        <Array as="points">
                            <mxPoint x="373" y="208"/>
                        </Array>
                    </mxGeometry>
                </mxCell>
                <mxCell id="30" value="" style="endArrow=none;html=1;rounded=0;strokeColor=#666666;strokeWidth=3;entryX=-0.003;entryY=0.647;entryDx=0;entryDy=0;entryPerimeter=0;exitX=0.5;exitY=1;exitDx=0;exitDy=0;" edge="1" parent="1" source="11" target="7">
                    <mxGeometry width="50" height="50" relative="1" as="geometry">
                        <mxPoint x="363" y="240" as="sourcePoint"/>
                        <mxPoint x="413" y="190" as="targetPoint"/>
                        <Array as="points">
                            <mxPoint x="388" y="198"/>
                        </Array>
                    </mxGeometry>
                </mxCell>
                <mxCell id="31" value="" style="endArrow=none;html=1;rounded=0;strokeColor=#666666;strokeWidth=3;exitX=1;exitY=0.778;exitDx=0;exitDy=0;exitPerimeter=0;entryX=0.75;entryY=1;entryDx=0;entryDy=0;" edge="1" parent="1" source="7" target="13">
                    <mxGeometry width="50" height="50" relative="1" as="geometry">
                        <mxPoint x="573" y="240" as="sourcePoint"/>
                        <mxPoint x="623" y="190" as="targetPoint"/>
                        <Array as="points">
                            <mxPoint x="623" y="210"/>
                        </Array>
                    </mxGeometry>
                </mxCell>
                <mxCell id="32" value="" style="endArrow=none;html=1;rounded=0;strokeColor=#FFFFFF;strokeWidth=3;exitX=1.001;exitY=0.667;exitDx=0;exitDy=0;exitPerimeter=0;entryX=0.5;entryY=1;entryDx=0;entryDy=0;" edge="1" parent="1" source="7" target="13">
                    <mxGeometry width="50" height="50" relative="1" as="geometry">
                        <mxPoint x="573" y="270" as="sourcePoint"/>
                        <mxPoint x="623" y="220" as="targetPoint"/>
                        <Array as="points">
                            <mxPoint x="608" y="200"/>
                        </Array>
                    </mxGeometry>
                </mxCell>
                <mxCell id="33" value="" style="endArrow=none;html=1;rounded=0;strokeColor=#660066;strokeWidth=1;exitX=1;exitY=0.5;exitDx=0;exitDy=0;entryX=0;entryY=0.5;entryDx=0;entryDy=0;" edge="1" parent="1" source="14" target="41">
                    <mxGeometry width="50" height="50" relative="1" as="geometry">
                        <mxPoint x="273" y="340" as="sourcePoint"/>
                        <mxPoint x="564" y="480" as="targetPoint"/>
                        <Array as="points">
                            <mxPoint x="233" y="300"/>
                            <mxPoint x="493" y="300"/>
                            <mxPoint x="493" y="480"/>
                        </Array>
                    </mxGeometry>
                </mxCell>
                <mxCell id="34" value="" style="endArrow=none;html=1;rounded=0;strokeColor=#0000FF;strokeWidth=1;entryX=0.6;entryY=1.02;entryDx=0;entryDy=0;entryPerimeter=0;exitX=0.004;exitY=0.428;exitDx=0;exitDy=0;exitPerimeter=0;" edge="1" parent="1" source="41" target="6">
                    <mxGeometry width="50" height="50" relative="1" as="geometry">
                        <mxPoint x="564" y="470" as="sourcePoint"/>
                        <mxPoint x="363" y="310" as="targetPoint"/>
                        <Array as="points">
                            <mxPoint x="503" y="470"/>
                            <mxPoint x="503" y="290"/>
                            <mxPoint x="303" y="290"/>
                        </Array>
                    </mxGeometry>
                </mxCell>
                <mxCell id="35" value="" style="endArrow=none;html=1;rounded=0;strokeColor=#00FF00;strokeWidth=1;entryX=0.804;entryY=0.996;entryDx=0;entryDy=0;entryPerimeter=0;exitX=-0.005;exitY=0.356;exitDx=0;exitDy=0;exitPerimeter=0;" edge="1" parent="1" source="41" target="6">
                    <mxGeometry width="50" height="50" relative="1" as="geometry">
                        <mxPoint x="564" y="460" as="sourcePoint"/>
                        <mxPoint x="373" y="320" as="targetPoint"/>
                        <Array as="points">
                            <mxPoint x="513" y="460"/>
                            <mxPoint x="513" y="280"/>
                            <mxPoint x="313" y="280"/>
                        </Array>
                    </mxGeometry>
                </mxCell>
                <mxCell id="36" value="" style="endArrow=none;html=1;rounded=0;strokeColor=#FFFF00;strokeWidth=1;entryX=0.69;entryY=1.005;entryDx=0;entryDy=0;entryPerimeter=0;exitX=-0.002;exitY=0.288;exitDx=0;exitDy=0;exitPerimeter=0;" edge="1" parent="1" source="41" target="7">
                    <mxGeometry width="50" height="50" relative="1" as="geometry">
                        <mxPoint x="523" y="370" as="sourcePoint"/>
                        <mxPoint x="573" y="260" as="targetPoint"/>
                        <Array as="points">
                            <mxPoint x="523" y="450"/>
                        </Array>
                    </mxGeometry>
                </mxCell>
                <mxCell id="38" value="" style="endArrow=none;html=1;rounded=0;strokeColor=#FFFFFF;strokeWidth=1;entryX=0.769;entryY=1.003;entryDx=0;entryDy=0;entryPerimeter=0;exitX=0;exitY=0.217;exitDx=0;exitDy=0;exitPerimeter=0;" edge="1" parent="1" source="41" target="7">
                    <mxGeometry width="50" height="50" relative="1" as="geometry">
                        <mxPoint x="533" y="370" as="sourcePoint"/>
                        <mxPoint x="583" y="260" as="targetPoint"/>
                        <Array as="points">
                            <mxPoint x="533" y="440"/>
                        </Array>
                    </mxGeometry>
                </mxCell>
                <mxCell id="39" value="" style="endArrow=none;html=1;rounded=0;strokeColor=#754E0B;strokeWidth=1;entryX=0.769;entryY=1.003;entryDx=0;entryDy=0;entryPerimeter=0;exitX=-0.001;exitY=0.144;exitDx=0;exitDy=0;exitPerimeter=0;" edge="1" parent="1" source="41">
                    <mxGeometry width="50" height="50" relative="1" as="geometry">
                        <mxPoint x="543" y="430" as="sourcePoint"/>
                        <mxPoint x="542.9699999999999" y="230" as="targetPoint"/>
                        <Array as="points">
                            <mxPoint x="543" y="430"/>
                        </Array>
                    </mxGeometry>
                </mxCell>
                <mxCell id="40" value="" style="endArrow=none;html=1;rounded=0;strokeColor=#666666;strokeWidth=1;entryX=0.769;entryY=1.003;entryDx=0;entryDy=0;entryPerimeter=0;exitX=0.002;exitY=0.078;exitDx=0;exitDy=0;exitPerimeter=0;" edge="1" parent="1" source="41">
                    <mxGeometry width="50" height="50" relative="1" as="geometry">
                        <mxPoint x="553" y="420" as="sourcePoint"/>
                        <mxPoint x="552.9699999999999" y="230" as="targetPoint"/>
                        <Array as="points">
                            <mxPoint x="553" y="421"/>
                        </Array>
                    </mxGeometry>
                </mxCell>
                <mxCell id="41" value="" style="rounded=0;whiteSpace=wrap;html=1;" vertex="1" parent="1">
                    <mxGeometry x="563" y="410" width="80" height="140" as="geometry"/>
                </mxCell>
                <mxCell id="42" value="" style="rounded=0;whiteSpace=wrap;html=1;" vertex="1" parent="1">
                    <mxGeometry x="583" y="410" width="40" height="70" as="geometry"/>
                </mxCell>
                <mxCell id="43" value="ESP32" style="text;html=1;strokeColor=none;fillColor=none;align=center;verticalAlign=middle;whiteSpace=wrap;rounded=0;" vertex="1" parent="1">
                    <mxGeometry x="573" y="530" width="60" height="20" as="geometry"/>
                </mxCell>
                <mxCell id="45" value="" style="rounded=0;whiteSpace=wrap;html=1;" vertex="1" parent="1">
                    <mxGeometry x="284" y="470" width="89" height="80" as="geometry"/>
                </mxCell>
                <mxCell id="46" value="Conversor AC / DC" style="text;html=1;strokeColor=none;fillColor=none;align=center;verticalAlign=middle;whiteSpace=wrap;rounded=0;" vertex="1" parent="1">
                    <mxGeometry x="298.5" y="520" width="60" height="30" as="geometry"/>
                </mxCell>
                <mxCell id="47" value="R" style="rounded=1;whiteSpace=wrap;html=1;" vertex="1" parent="1">
                    <mxGeometry x="534" y="490" width="10" height="20" as="geometry"/>
                </mxCell>
                <mxCell id="49" value="" style="endArrow=none;html=1;rounded=0;strokeColor=#FF0000;strokeWidth=3;exitX=1.009;exitY=0.874;exitDx=0;exitDy=0;exitPerimeter=0;entryX=-0.002;entryY=0.927;entryDx=0;entryDy=0;entryPerimeter=0;" edge="1" parent="1" source="45" target="41">
                    <mxGeometry width="50" height="50" relative="1" as="geometry">
                        <mxPoint x="444" y="540" as="sourcePoint"/>
                        <mxPoint x="494" y="490" as="targetPoint"/>
                    </mxGeometry>
                </mxCell>
                <mxCell id="50" value="" style="endArrow=none;html=1;rounded=0;strokeColor=#000000;strokeWidth=1;entryX=0.5;entryY=1;entryDx=0;entryDy=0;" edge="1" parent="1" target="47">
                    <mxGeometry width="50" height="50" relative="1" as="geometry">
                        <mxPoint x="534" y="520" as="sourcePoint"/>
                        <mxPoint x="554" y="470" as="targetPoint"/>
                        <Array as="points">
                            <mxPoint x="539" y="520"/>
                        </Array>
                    </mxGeometry>
                </mxCell>
                <mxCell id="51" value="" style="endArrow=none;html=1;rounded=0;strokeColor=#660066;strokeWidth=1;exitX=0.5;exitY=0;exitDx=0;exitDy=0;" edge="1" parent="1" source="47">
                    <mxGeometry width="50" height="50" relative="1" as="geometry">
                        <mxPoint x="514" y="510" as="sourcePoint"/>
                        <mxPoint x="544" y="480" as="targetPoint"/>
                        <Array as="points">
                            <mxPoint x="539" y="480"/>
                        </Array>
                    </mxGeometry>
                </mxCell>
                <mxCell id="52" value="" style="endArrow=none;html=1;rounded=0;strokeColor=#CC0000;strokeWidth=3;entryX=-0.001;entryY=0.634;entryDx=0;entryDy=0;entryPerimeter=0;" edge="1" parent="1" target="45">
                    <mxGeometry width="50" height="50" relative="1" as="geometry">
                        <mxPoint x="180" y="521" as="sourcePoint"/>
                        <mxPoint x="214" y="500" as="targetPoint"/>
                    </mxGeometry>
                </mxCell>
                <mxCell id="53" value="" style="endArrow=none;html=1;rounded=0;strokeColor=#004C99;strokeWidth=3;entryX=-0.007;entryY=0.864;entryDx=0;entryDy=0;entryPerimeter=0;" edge="1" parent="1" target="45">
                    <mxGeometry width="50" height="50" relative="1" as="geometry">
                        <mxPoint x="180" y="539" as="sourcePoint"/>
                        <mxPoint x="263" y="540" as="targetPoint"/>
                    </mxGeometry>
                </mxCell>
                <mxCell id="54" value="127 VAC" style="text;html=1;strokeColor=none;fillColor=none;align=center;verticalAlign=middle;whiteSpace=wrap;rounded=0;" vertex="1" parent="1">
                    <mxGeometry x="203" y="490" width="60" height="30" as="geometry"/>
                </mxCell>
                <mxCell id="55" value="12 VDC" style="text;html=1;strokeColor=none;fillColor=none;align=center;verticalAlign=middle;whiteSpace=wrap;rounded=0;" vertex="1" parent="1">
                    <mxGeometry x="384" y="490" width="60" height="30" as="geometry"/>
                </mxCell>
                <mxCell id="56" value="5 VDC" style="text;html=1;strokeColor=none;fillColor=none;align=center;verticalAlign=middle;whiteSpace=wrap;rounded=0;" vertex="1" parent="1">
                    <mxGeometry x="353" y="250" width="60" height="10" as="geometry"/>
                </mxCell>
                <mxCell id="57" value="" style="rounded=0;whiteSpace=wrap;html=1;fillColor=none;" vertex="1" parent="1">
                    <mxGeometry x="194" y="40" width="470" height="280" as="geometry"/>
                </mxCell>
                <mxCell id="61" value="" style="rounded=0;whiteSpace=wrap;html=1;fillColor=none;" vertex="1" parent="1">
                    <mxGeometry x="194" y="390" width="470" height="200" as="geometry"/>
                </mxCell>
                <mxCell id="62" value="&lt;b&gt;Caixa de Controle&lt;/b&gt;" style="text;html=1;strokeColor=none;fillColor=none;align=center;verticalAlign=middle;whiteSpace=wrap;rounded=0;" vertex="1" parent="1">
                    <mxGeometry x="213" y="410" width="107" height="30" as="geometry"/>
                </mxCell>
                <mxCell id="63" value="&lt;b&gt;Persiana&lt;/b&gt;" style="text;html=1;strokeColor=none;fillColor=none;align=center;verticalAlign=middle;whiteSpace=wrap;rounded=0;" vertex="1" parent="1">
                    <mxGeometry x="213" y="60" width="57" height="30" as="geometry"/>
                </mxCell>
            </root>
        </mxGraphModel>
    </diagram>
</mxfile>